<?xml version="1.0" encoding="utf-8"?><svg viewBox="0 0 100 100" xmlns="http://www.w3.org/2000/svg" width="76px" height="76px" xmlns:xlink="http://www.w3.org/1999/xlink" style="width:100%;height:100%;background-size:initial;background-repeat-y:initial;background-repeat-x:initial;background-position-y:initial;background-position-x:initial;background-origin:initial;background-color:initial;background-clip:initial;background-attachment:initial;animation-play-state:paused" ><g class="ldl-scale" style="transform-origin:50% 50%;transform:rotate(0deg) scale(0.8, 0.8);animation-play-state:paused" ><path fill="#333" d="M50.4 7.5C44.7 7.4 40 12 40 17.7v71.6c0 1.7 1.4 3.1 3.1 3.1h14.2c1.7 0 3.1-1.4 3.1-3.1V18.1c.1-5.6-4.3-10.5-10-10.6zm1.4 56.8c0 .8-.7 1.5-1.5 1.5s-1.5-.7-1.5-1.5v-3.9c0-.8.7-1.5 1.5-1.5s1.5.7 1.5 1.5v3.9zm0-13.3c0 .8-.7 1.5-1.5 1.5s-1.5-.7-1.5-1.5v-2.7c0-.8.7-1.5 1.5-1.5s1.5.7 1.5 1.5V51zm0-12.8c0 .8-.7 1.5-1.5 1.5s-1.5-.7-1.5-1.5V17.4c0-.8.7-1.5 1.5-1.5s1.5.7 1.5 1.5v20.8z" style="fill:rgb(51, 51, 51);animation-play-state:paused" ></path>
<path fill="#333" d="M77.4 23.9c-4.6 0-8.4 3.8-8.4 8.4v24.6l-6.5 3.9v19l19.4-11.7 3.2-1.9c.4-.3.7-.7.7-1.2V32.3c-.1-4.6-3.8-8.4-8.4-8.4zm1.4 36.5c0 .8-.7 1.5-1.5 1.5s-1.5-.7-1.5-1.5V57c0-.8.7-1.5 1.5-1.5s1.5.7 1.5 1.5v3.4zm0-18.3c0 .8-.7 1.5-1.5 1.5s-1.5-.7-1.5-1.5v-8.9c0-.8.7-1.5 1.5-1.5s1.5.7 1.5 1.5v8.9z" style="fill:rgb(51, 51, 51);animation-play-state:paused" ></path>
<path fill="#333" d="M31.4 29.9c0-4.6-3.5-8.6-8-8.9-5-.3-9.1 3.6-9.1 8.5v26.4c0 .5.3 1 .7 1.2l2 1.2 20.6 12.4V52l-6.2-3.7V29.9zM24 51c0 .8-.7 1.5-1.5 1.5S21 51.8 21 51V41c0-.8.7-1.5 1.5-1.5s1.5.6 1.5 1.5v10zm0-17.9c0 .8-.7 1.5-1.5 1.5s-1.5-.7-1.5-1.5v-2.6c0-.8.7-1.5 1.5-1.5s1.5.7 1.5 1.5v2.6z" style="fill:rgb(51, 51, 51);animation-play-state:paused" ></path>
<metadata xmlns:d="https://loading.io/stock/" style="animation-play-state:paused" ><d:name style="animation-play-state:paused" >cactus</d:name>


<d:tags style="animation-play-state:paused" >cactus,succulents,prickly plant,spiny,prickle,mexico</d:tags>


<d:license style="animation-play-state:paused" >by</d:license>


<d:slug style="animation-play-state:paused" >1iacxc</d:slug></metadata></g><!-- generated by https://loading.io/ --></svg>